# xmcd
#
# Track frame offsets: 
#        150
#        4061
#        19571
#        32839
#        36642
#        51671
#        69484
#        76920
#        96376
#        116794
#        122960
#        140232
#        156061
#        165351
#        180549
#        191727
#
# Disc length: 2625 seconds
#
# Revision: 1
# Processed by: cddbd v1.5.2PL0 Copyright (c) Steve Scherf et al.
# Submitted via: ExactAudioCopyFreeDBPlugin 1.0
#
DISCID=e20a3f10
DTITLE=Czarface and MF Doom - Czarface Meets Metal Face
DYEAR=2018
DGENRE=Hip-Hop
TTITLE0=Take Your Medicine
TTITLE1=Meddle With Metal
TTITLE2=Badness of Madness
TTITLE3=Close Talker
TTITLE4=Forever People
TTITLE5=Captain Crunch
TTITLE6=Don't Spoil It
TTITLE7=Phantoms (feat. Open Mike Eagle)
TTITLE8=Bomb Thrown
TTITLE9=You Masked for It
TTITLE10=Astral Traveling (feat. Vinne Paz)
TTITLE11=Nautical Depth
TTITLE12=Stun Gun
TTITLE13=MF Czar
TTITLE14=Captain Brunch
TTITLE15=Sleeping Dogs
EXTD=
EXTT0=
EXTT1=
EXTT2=
EXTT3=
EXTT4=
EXTT5=
EXTT6=
EXTT7=
EXTT8=
EXTT9=
EXTT10=
EXTT11=
EXTT12=
EXTT13=
EXTT14=
EXTT15=
PLAYORDER=
